Emerson Lake And Palmer  40th Reunion Concert 2010 Mkv 1080p Dts Hd



- Karn Evil 9: 1st Impression - Part 2
- The Barbarian
- Bitches Crystal
- Knife Edge
- From The Beginning
- Touch and Go
- Take A Pebble/Tarkus
- Farewell to Arms
- Lucky Man
- Pictures At An Exhibition
- Fanfare for the Common Man/Drum Solo/Rondo


General 
Unique ID : 178032208909260846686920205445092502493 (0x85EFC197A892FA69B48BD599A1D66BDD) 
Emerson Lake And Palmer 40th Reunion Concert
Format : Matroska 
Format version : Version 2 
File size : 4.43 GiB 
Duration : 1h 32mn 
Overall bit rate mode : Variable 
Overall bit rate : 6 878 Kbps 
Movie name : Emerson Lake And Palmer 40th Reunion Concert 2010 
Encoded date : UTC 2012-12-15 12:09:41 
Writing application : mkvmerge v5.7.0 ('The Whirlwind') built on Jul 8 2012 20:08:51 
Writing library : libebml v1.2.3 + libmatroska v1.3.0 

Video 
ID : 1 
Format : AVC 
Format/Info : Advanced Video Codec 
Format profile : High@L4.0 
Format settings, CABAC : Yes 
Format settings, ReFrames : 3 frames 
Codec ID : V_MPEG4/ISO/AVC 
Duration : 1h 32mn 
Bit rate mode : Variable 
Bit rate : 6 357 Kbps 
Maximum bit rate : 25.0 Mbps 
Width : 1 920 pixels 
Height : 1 080 pixels 
Display aspect ratio : 16:9 
Frame rate mode : Constant 
Frame rate : 23.976 fps 
Color space : YUV 
Chroma subsampling : 4:2:0 
Bit depth : 8 bits 
Scan type : Progressive 
Bits/(Pixel*Frame) : 0.128 
Stream size : 4.09 GiB (92%) 
Writing library : x264 core 125 r2208 d9d2288 
Encoding settings : cabac=1 / ref=3 / deblock=1:0:0 / analyse=0x3:0x113 / me=hex / subme=7 / psy=1 / psy_rd=1.00:0.00 / mixed_ref=1 / me_range=16 / chroma_me=1 / trellis=1 / 8x8dct=1 / cqm=0 / deadzone=21,11 / fast_pskip=1 / chroma_qp_offset=-2 / threads=12 / lookahead_threads=2 / sliced_threads=0 / nr=0 / decimate=1 / interlaced=0 / bluray_compat=0 / constrained_intra=0 / bframes=3 / b_pyramid=0 / b_adapt=1 / b_bias=0 / direct=1 / weightb=1 / open_gop=0 / weightp=2 / keyint=240 / keyint_min=24 / scenecut=40 / intra_refresh=0 / rc_lookahead=40 / rc=crf / mbtree=1 / crf=24.0 / qcomp=0.60 / qpmin=0 / qpmax=69 / qpstep=4 / vbv_maxrate=25000 / vbv_bufsize=25000 / crf_max=0.0 / nal_hrd=vbr / ip_ratio=1.40 / aq=1:1.00 
Default : Yes 
Forced : No 

Audio 
ID : 2 
Format : AC-3 
Format/Info : Audio Coding 3 
Mode extension : CM (complete main) 
Format settings, Endianness : Big 
Codec ID : A_AC3 
Duration : 1h 32mn 
Bit rate mode : Constant 
Bit rate : 384 Kbps 
Channel(s) : 6 channels 
Channel positions : Front: L C R, Side: L R, LFE 
Sampling rate : 48.0 KHz 
Bit depth : 16 bits 
Compression mode : Lossy 
Stream size : 253 MiB (6%) 
Language : English 
Default : Yes 
Forced : No 

Menu 
00:00:00.000 : en:Chapter 00 
00:00:08.008 : en:Chapter 01 
00:00:23.023 : en:Chapter 02 
00:06:22.840 : en:Chapter 03 
00:11:48.374 : en:Chapter 04 
00:16:18.143 : en:Chapter 05 
00:22:33.935 : en:Chapter 06 
00:27:59.094 : en:Chapter 07 
00:31:29.178 : en:Chapter 08 
00:50:58.305 : en:Chapter 09 
00:57:08.800 : en:Chapter 10 
01:03:17.960 : en:Chapter 11 
01:19:51.286 : en:Chapter 12 
01:30:51.404 : en:Chapter 13 
